<svg width="440" height="440" viewBox="0 0 440 440" fill="none" xmlns="http://www.w3.org/2000/svg">
<circle cx="220" cy="220" r="220" fill="#FF5722"/>
<path d="M114.813 92.0615C119.276 92.0615 123.137 93.692 126.398 96.9528C129.659 100.214 131.289 104.075 131.289 108.537C131.289 113 129.659 116.861 126.398 120.122C123.137 123.383 119.276 125.013 114.813 125.013C110.351 125.013 106.49 123.383 103.229 120.122C99.9679 116.861 98.3374 113 98.3374 108.537C98.3374 104.075 99.9679 100.214 103.229 96.9528C106.49 93.692 110.351 92.0615 114.813 92.0615ZM128.2 153.589V265.058C128.2 272.267 129.659 277.158 132.576 279.732C135.666 282.307 140.729 283.594 147.765 283.594V289C144.848 288.828 140.385 288.657 134.378 288.485C128.543 288.142 122.622 287.97 116.615 287.97C110.78 287.97 104.859 288.142 98.8523 288.485C92.8455 288.657 88.3832 288.828 85.4656 289V283.594C92.5022 283.594 97.4793 282.307 100.397 279.732C103.486 277.158 105.031 272.267 105.031 265.058V184.481C105.031 176.758 103.658 171.094 100.912 167.49C98.1658 163.715 93.0171 161.827 85.4656 161.827V156.421C90.9576 156.935 96.2779 157.193 101.427 157.193C106.404 157.193 111.123 156.935 115.586 156.421C120.219 155.734 124.424 154.79 128.2 153.589ZM146.727 337.398V333.536C157.368 333.022 165.349 328.388 170.669 319.635C175.989 311.054 178.649 299.212 178.649 284.109V184.481C178.649 176.758 177.276 171.094 174.53 167.49C171.784 163.715 166.636 161.827 159.084 161.827V156.421C164.576 156.935 169.897 157.193 175.045 157.193C180.022 157.193 184.742 156.935 189.204 156.421C193.838 155.734 198.043 154.79 201.819 153.589V259.395C201.819 267.976 201.218 276.128 200.017 283.851C198.815 291.574 196.842 298.611 194.096 304.961C191.35 311.311 187.745 316.889 183.283 321.694C178.993 326.328 173.672 330.104 167.322 333.022C161.144 335.939 154.279 337.398 146.727 337.398ZM187.917 92.0615C192.379 92.0615 196.241 93.692 199.502 96.9528C202.763 100.214 204.393 104.075 204.393 108.537C204.393 113 202.763 116.861 199.502 120.122C196.241 123.383 192.379 125.013 187.917 125.013C183.455 125.013 179.593 123.383 176.332 120.122C173.072 116.861 171.441 113 171.441 108.537C171.441 104.075 173.072 100.214 176.332 96.9528C179.593 93.692 183.455 92.0615 187.917 92.0615ZM276.887 337.398C267.791 337.398 259.21 336.454 251.144 334.566C243.077 332.678 236.556 329.675 231.579 325.556C226.773 321.609 224.37 316.546 224.37 310.367C224.37 304.36 226.773 299.212 231.579 294.921C236.384 290.63 242.906 287.37 251.144 285.138L252.688 289.257C248.913 290.459 245.909 292.862 243.678 296.466C241.447 300.07 240.331 304.103 240.331 308.565C240.331 316.46 243.936 322.467 251.144 326.586C258.524 330.876 268.049 333.022 279.719 333.022C287.442 333.022 294.994 331.992 302.373 329.932C309.753 328.044 315.846 324.784 320.651 320.15C325.457 315.516 327.86 309.423 327.86 301.872C327.86 296.208 325.8 291.574 321.681 287.97C317.734 284.195 309.839 282.307 297.997 282.307H278.947C273.455 282.307 268.134 281.878 262.986 281.019C257.837 280.161 253.632 278.359 250.371 275.613C247.111 272.867 245.48 268.663 245.48 262.999C245.48 257.164 247.883 251.586 252.688 246.266C257.494 240.774 266.332 235.196 279.204 229.532L282.293 231.849C276.458 234.938 271.395 238.114 267.105 241.374C262.814 244.464 260.669 248.154 260.669 252.444C260.669 257.936 264.788 260.682 273.026 260.682H305.205C312.413 260.682 319.021 261.712 325.028 263.771C331.206 265.831 336.183 269.092 339.959 273.554C343.735 278.016 345.623 283.851 345.623 291.059C345.623 299.126 343.048 306.677 337.9 313.714C332.751 320.75 325.028 326.414 314.73 330.705C304.605 335.167 291.99 337.398 276.887 337.398ZM278.174 234.166C269.765 234.166 262.128 232.793 255.263 230.047C248.398 227.13 242.992 222.667 239.044 216.661C235.097 210.654 233.123 202.931 233.123 193.491C233.123 184.052 235.097 176.329 239.044 170.322C242.992 164.315 248.398 159.939 255.263 157.193C262.128 154.275 269.765 152.816 278.174 152.816C286.756 152.816 294.393 154.275 301.086 157.193C307.951 159.939 313.357 164.315 317.305 170.322C321.252 176.329 323.226 184.052 323.226 193.491C323.226 202.931 321.252 210.654 317.305 216.661C313.357 222.667 307.951 227.13 301.086 230.047C294.393 232.793 286.756 234.166 278.174 234.166ZM278.174 229.532C284.696 229.532 289.759 226.958 293.363 221.809C297.139 216.661 299.027 207.221 299.027 193.491C299.027 179.761 297.139 170.322 293.363 165.173C289.759 160.025 284.696 157.45 278.174 157.45C271.824 157.45 266.762 160.025 262.986 165.173C259.21 170.322 257.322 179.761 257.322 193.491C257.322 207.221 259.21 216.661 262.986 221.809C266.762 226.958 271.824 229.532 278.174 229.532ZM315.245 174.184L310.611 172.382C313.014 166.546 317.133 161.398 322.968 156.935C328.804 152.473 334.896 150.242 341.246 150.242C345.709 150.242 349.313 151.529 352.059 154.104C354.805 156.506 356.178 160.196 356.178 165.173C356.178 170.494 354.719 174.269 351.801 176.501C349.055 178.56 346.223 179.59 343.306 179.59C340.731 179.59 338.329 178.732 336.098 177.015C333.866 175.128 332.579 172.21 332.236 168.263C331.893 164.315 333.094 159.252 335.84 153.074L339.187 153.846C331.979 156.592 326.83 159.51 323.741 162.599C320.651 165.517 317.82 169.378 315.245 174.184Z" fill="white"/>
</svg>
